<?xml version="1.0" encoding="UTF-8" standalone="no"?>
<svg
   width="10.527438"
   height="13.91"
   viewBox="0 0 10.527438 13.91"
   version="1.1"
   id="svg7"
   sodipodi:docname="Bitcoin.svg"
   inkscape:version="1.2.2 (732a01da63, 2022-12-09)"
   xmlns:inkscape="http://www.inkscape.org/namespaces/inkscape"
   xmlns:sodipodi="http://sodipodi.sourceforge.net/DTD/sodipodi-0.dtd"
   xmlns="http://www.w3.org/2000/svg"
   xmlns:svg="http://www.w3.org/2000/svg">
  <sodipodi:namedview
     id="namedview9"
     pagecolor="#ffffff"
     bordercolor="#000000"
     borderopacity="0.25"
     inkscape:showpageshadow="2"
     inkscape:pageopacity="0.0"
     inkscape:pagecheckerboard="0"
     inkscape:deskcolor="#d1d1d1"
     showgrid="false"
     inkscape:zoom="67.44"
     inkscape:cx="6.6651839"
     inkscape:cy="9.541815"
     inkscape:window-width="1920"
     inkscape:window-height="1001"
     inkscape:window-x="2391"
     inkscape:window-y="-9"
     inkscape:window-maximized="1"
     inkscape:current-layer="svg7" />
  <defs
     id="defs4">
    <style
       id="style2">
	.cls-1{
		fill: #f2a900
	}
	</style>
  </defs>
  <path
     class="cls-1"
     d="M 8.12,5.58 C 7.78,6.95 5.68,6.25 4.99,6.08 L 5.59,3.66 C 6.26,3.84 8.45,4.14 8.11,5.58 Z M 7.74,9.47 C 7.36,10.96 4.84,10.16 4.01,9.95 L 4.68,7.29 C 5.51,7.51 8.15,7.92 7.74,9.47 Z M 10.5,5.6 C 10.72,4.13 9.59,3.34 8.08,2.82 L 8.58,0.84 7.37,0.54 6.89,2.48 C 6.57,2.4 6.24,2.32 5.92,2.26 L 6.4,0.3 5.19,0 4.69,1.98 C 4.43,1.92 4.17,1.86 3.92,1.8 L 2.25,1.38 1.93,2.67 c 0,0 0.91,0.2 0.89,0.22 C 3.3,3.01 3.4,3.33 3.38,3.6 L 2.03,9.02 C 1.97,9.16 1.81,9.38 1.49,9.3 1.51,9.32 0.6,9.08 0.6,9.08 L 0,10.47 1.57,10.85 c 0.3,0.08 0.58,0.14 0.87,0.22 l -0.5,2.02 1.21,0.3 0.5,-2 c 0.32,0.08 0.65,0.18 0.97,0.24 l -0.5,1.98 1.21,0.3 0.5,-2 C 7.89,12.29 9.44,12.15 10.1,10.28 10.62,8.79 10.08,7.92 8.99,7.36 9.76,7.2 10.34,6.67 10.5,5.61 v 0 z"
     id="path5189" />
</svg>
