<?xml version="1.0" encoding="UTF-8" standalone="no"?>
<svg
   viewBox="0 0 89.214996 45.529999"
   version="1.1"
   id="svg192"
   sodipodi:docname="gems.svg"
   width="89.214996"
   height="45.529999"
   inkscape:version="1.2.2 (732a01da63, 2022-12-09)"
   xmlns:inkscape="http://www.inkscape.org/namespaces/inkscape"
   xmlns:sodipodi="http://sodipodi.sourceforge.net/DTD/sodipodi-0.dtd"
   xmlns:xlink="http://www.w3.org/1999/xlink"
   xmlns="http://www.w3.org/2000/svg"
   xmlns:svg="http://www.w3.org/2000/svg">
  <sodipodi:namedview
     id="namedview194"
     pagecolor="#ffffff"
     bordercolor="#000000"
     borderopacity="0.25"
     inkscape:showpageshadow="2"
     inkscape:pageopacity="0.0"
     inkscape:pagecheckerboard="0"
     inkscape:deskcolor="#d1d1d1"
     showgrid="false"
     inkscape:zoom="1.05375"
     inkscape:cx="291.34045"
     inkscape:cy="190.27284"
     inkscape:window-width="1920"
     inkscape:window-height="1001"
     inkscape:window-x="2391"
     inkscape:window-y="-9"
     inkscape:window-maximized="1"
     inkscape:current-layer="svg192" />
  <defs
     id="defs120">
    <defs
       id="defs118">
      <style
         id="style2">.cls-1{letter-spacing:.03em;}.cls-2{letter-spacing:.02em;}.cls-3{letter-spacing:.05em;}.cls-4{letter-spacing:-.01em;}.cls-5{letter-spacing:.05em;}.cls-6{letter-spacing:.05em;}.cls-7{letter-spacing:.03em;}.cls-8{fill:url(#linear-gradient);}.cls-9,.cls-10,.cls-11{letter-spacing:.03em;}.cls-12{letter-spacing:.02em;}.cls-13{fill:url(#linear-gradient-9);}.cls-13,.cls-14{stroke-width:.25px;}.cls-13,.cls-14,.cls-15{stroke:#ff00bc;}.cls-13,.cls-15,.cls-16{stroke-miterlimit:10;}.cls-17{letter-spacing:.01em;}.cls-18{letter-spacing:.05em;}.cls-19{font-size:14px;}.cls-19,.cls-20,.cls-21,.cls-22{fill:#ff00bc;}.cls-19,.cls-23,.cls-10,.cls-24{font-family:GuidaPro-Light, 'Guida Pro';font-weight:300;}.cls-25{fill:#f2a900;}.cls-26,.cls-11,.cls-27{fill:#71868f;}.cls-28{fill:#6f89ff;}.cls-29,.cls-15,.cls-30{fill:#272932;}.cls-31,.cls-23{fill:#545e68;}.cls-32{fill:rgba(111,137,255,.6);}.cls-33{fill:rgba(111,137,255,.2);}.cls-34{letter-spacing:.04em;}.cls-35{letter-spacing:.04em;}.cls-23{font-size:7.47px;}.cls-10,.cls-36,.cls-24{fill:#fff;}.cls-10,.cls-24{font-size:10px;}.cls-37{letter-spacing:.02em;}.cls-38{fill:url(#radial-gradient-2);mix-blend-mode:screen;}.cls-39{letter-spacing:0em;}.cls-11{font-family:Galvji, Galvji;font-size:7.5px;}.cls-40{fill:#a1b4b6;}.cls-40,.cls-21,.cls-36{font-family:GuidaPro-Regular, 'Guida Pro';font-size:8px;}.cls-41{letter-spacing:.03em;}.cls-42{letter-spacing:0em;}.cls-43{letter-spacing:-.01em;}.cls-22{opacity:.16;}.cls-14{stroke-linecap:round;stroke-linejoin:round;}.cls-14,.cls-16{fill:none;}.cls-44{letter-spacing:.03em;}.cls-45{fill:url(#linear-gradient-8);}.cls-46{fill:url(#linear-gradient-3);}.cls-47{fill:url(#linear-gradient-4);}.cls-48{fill:url(#linear-gradient-2);}.cls-49{fill:url(#linear-gradient-6);}.cls-50{fill:url(#linear-gradient-7);}.cls-51{fill:url(#linear-gradient-5);}.cls-52{letter-spacing:.03em;}.cls-53{letter-spacing:0em;}.cls-54{fill:url(#radial-gradient);mix-blend-mode:multiply;}.cls-55{opacity:.4;}.cls-56{letter-spacing:-.04em;}.cls-27{font-family:Galvji-Bold, Galvji;font-size:9px;font-weight:700;}.cls-57{letter-spacing:.03em;}.cls-58{fill:url(#linear-gradient-10);}.cls-59{isolation:isolate;}.cls-60{letter-spacing:0em;}.cls-61{letter-spacing:0em;}.cls-62{letter-spacing:.01em;}.cls-63{letter-spacing:0em;}.cls-15{stroke-width:.75px;}.cls-30{opacity:.59;}.cls-64{fill:#221f20;opacity:.54;}.cls-16{stroke:#2f323a;stroke-width:.5px;}</style>
      <linearGradient
         id="linear-gradient"
         x1="128.67999"
         y1="20.74"
         x2="128.67999"
         y2="9.96"
         gradientUnits="userSpaceOnUse">
        <stop
           offset="0"
           stop-color="#666"
           id="stop4" />
        <stop
           offset="1"
           stop-color="#010104"
           id="stop6" />
      </linearGradient>
      <linearGradient
         id="linear-gradient-2"
         x1="-5436.9702"
         y1="-293.85999"
         x2="-5436.9702"
         y2="-300.01999"
         gradientTransform="rotate(180,-2654.145,-140.595)"
         gradientUnits="userSpaceOnUse">
        <stop
           offset="0"
           stop-color="#0b131c"
           id="stop9" />
        <stop
           offset="1"
           stop-color="#354039"
           id="stop11" />
      </linearGradient>
      <linearGradient
         id="linear-gradient-3"
         x1="130.61"
         y1="17.540001"
         x2="126.74"
         y2="13.67"
         gradientUnits="userSpaceOnUse">
        <stop
           offset="0"
           stop-color="#231f20"
           id="stop14" />
        <stop
           offset=".08"
           stop-color="#212226"
           id="stop16" />
        <stop
           offset=".2"
           stop-color="#1f2c37"
           id="stop18" />
        <stop
           offset=".33"
           stop-color="#1a3c53"
           id="stop20" />
        <stop
           offset=".47"
           stop-color="#13537b"
           id="stop22" />
        <stop
           offset=".62"
           stop-color="#0a70ae"
           id="stop24" />
        <stop
           offset=".78"
           stop-color="#0093eb"
           id="stop26" />
        <stop
           offset=".78"
           stop-color="#0095ee"
           id="stop28" />
        <stop
           offset=".8"
           stop-color="#0387d6"
           id="stop30" />
        <stop
           offset=".84"
           stop-color="#0d689f"
           id="stop32" />
        <stop
           offset=".88"
           stop-color="#154d71"
           id="stop34" />
        <stop
           offset=".91"
           stop-color="#1b394e"
           id="stop36" />
        <stop
           offset=".95"
           stop-color="#1f2a34"
           id="stop38" />
        <stop
           offset=".98"
           stop-color="#222225"
           id="stop40" />
        <stop
           offset="1"
           stop-color="#231f20"
           id="stop42" />
      </linearGradient>
      <radialGradient
         id="radial-gradient"
         cx="128.67999"
         cy="15.61"
         fx="128.67999"
         fy="15.61"
         r="2.73"
         gradientUnits="userSpaceOnUse">
        <stop
           offset="0"
           stop-color="#231f20"
           id="stop45" />
        <stop
           offset=".2"
           stop-color="#165068"
           id="stop47" />
        <stop
           offset=".38"
           stop-color="#0c78a1"
           id="stop49" />
        <stop
           offset=".54"
           stop-color="#0594cb"
           id="stop51" />
        <stop
           offset=".66"
           stop-color="#01a6e4"
           id="stop53" />
        <stop
           offset=".73"
           stop-color="#00adee"
           id="stop55" />
        <stop
           offset=".76"
           stop-color="#01a5e3"
           id="stop57" />
        <stop
           offset=".81"
           stop-color="#0693c8"
           id="stop59" />
        <stop
           offset=".87"
           stop-color="#0d749b"
           id="stop61" />
        <stop
           offset=".94"
           stop-color="#184a5e"
           id="stop63" />
        <stop
           offset="1"
           stop-color="#231f20"
           id="stop65" />
      </radialGradient>
      <radialGradient
         id="radial-gradient-2"
         cx="130.17999"
         cy="17.030001"
         fx="130.17999"
         fy="17.030001"
         r="0.98000002"
         gradientUnits="userSpaceOnUse">
        <stop
           offset="0"
           stop-color="#ccc"
           id="stop68" />
        <stop
           offset=".02"
           stop-color="#c4c4c4"
           id="stop70" />
        <stop
           offset=".22"
           stop-color="#898989"
           id="stop72" />
        <stop
           offset=".41"
           stop-color="#585858"
           id="stop74" />
        <stop
           offset=".59"
           stop-color="#313131"
           id="stop76" />
        <stop
           offset=".75"
           stop-color="#161616"
           id="stop78" />
        <stop
           offset=".89"
           stop-color="#050505"
           id="stop80" />
        <stop
           offset="1"
           stop-color="#000"
           id="stop82" />
      </radialGradient>
      <linearGradient
         id="linear-gradient-4"
         x1="-934.73999"
         y1="-1647.76"
         x2="-934.73999"
         y2="-1682.14"
         gradientTransform="rotate(55.31,-2216.119,301.02502)"
         gradientUnits="userSpaceOnUse">
        <stop
           offset="0"
           stop-color="#ff00bc"
           stop-opacity="0"
           id="stop85" />
        <stop
           offset="1"
           stop-color="#ff00bc"
           stop-opacity=".6"
           id="stop87" />
      </linearGradient>
      <linearGradient
         id="linear-gradient-5"
         x1="131.23"
         y1="256.54001"
         x2="131.23"
         y2="244.92999"
         gradientUnits="userSpaceOnUse">
        <stop
           offset="0"
           stop-color="#ff00bc"
           stop-opacity="0"
           id="stop90" />
        <stop
           offset=".26"
           stop-color="#ff00bc"
           stop-opacity=".03"
           id="stop92" />
        <stop
           offset=".65"
           stop-color="#ff00bc"
           stop-opacity=".11"
           id="stop94" />
        <stop
           offset="1"
           stop-color="#ff00bc"
           stop-opacity=".2"
           id="stop96" />
      </linearGradient>
      <linearGradient
         id="linear-gradient-6"
         x1="-3634.6799"
         y1="2237.6499"
         x2="-3654.3899"
         y2="2239.72"
         gradientTransform="matrix(-0.56913602,0.82224339,0.82224339,0.56913602,-3815.9,1951.89)"
         xlink:href="#linear-gradient-4" />
      <linearGradient
         id="linear-gradient-7"
         x1="-4622.1201"
         y1="240.66"
         x2="-4622.1201"
         y2="233.97"
         gradientTransform="matrix(-1,0,0,1,-4523.23,0)"
         xlink:href="#linear-gradient-5" />
      <linearGradient
         id="linear-gradient-8"
         x1="59.59"
         y1="236.08"
         x2="94.790001"
         y2="236.08"
         gradientUnits="userSpaceOnUse">
        <stop
           offset=".53"
           stop-color="#272932"
           stop-opacity=".2"
           id="stop101" />
        <stop
           offset=".89"
           stop-color="#272932"
           id="stop103" />
      </linearGradient>
      <linearGradient
         id="linear-gradient-9"
         x1="74.949997"
         y1="241.27"
         x2="79.839996"
         y2="229.97"
         gradientUnits="userSpaceOnUse">
        <stop
           offset="0"
           stop-color="#ff00bc"
           stop-opacity=".2"
           id="stop106" />
        <stop
           offset=".16"
           stop-color="#ff00bc"
           stop-opacity=".23"
           id="stop108" />
        <stop
           offset=".41"
           stop-color="#ff00bc"
           stop-opacity=".31"
           id="stop110" />
        <stop
           offset=".69"
           stop-color="#ff00bc"
           stop-opacity=".43"
           id="stop112" />
        <stop
           offset="1"
           stop-color="#ff00bc"
           stop-opacity=".6"
           id="stop114" />
      </linearGradient>
      <linearGradient
         id="linear-gradient-10"
         x1="59.59"
         y1="240.35001"
         x2="94.790001"
         y2="240.35001"
         xlink:href="#linear-gradient-9" />
    </defs>
    <linearGradient
       inkscape:collect="always"
       xlink:href="#linear-gradient-4"
       id="linearGradient196"
       gradientUnits="userSpaceOnUse"
       gradientTransform="rotate(55.31,-2216.119,301.02502)"
       x1="-934.73999"
       y1="-1647.76"
       x2="-934.73999"
       y2="-1682.14" />
    <linearGradient
       inkscape:collect="always"
       xlink:href="#linear-gradient-5"
       id="linearGradient198"
       gradientUnits="userSpaceOnUse"
       x1="131.23"
       y1="256.54001"
       x2="131.23"
       y2="244.92999" />
    <linearGradient
       inkscape:collect="always"
       xlink:href="#linear-gradient-9"
       id="linearGradient200"
       gradientUnits="userSpaceOnUse"
       x1="74.949997"
       y1="241.27"
       x2="79.839996"
       y2="229.97" />
  </defs>
  <g
     id="g142"
     transform="translate(-59.465,-211.01)">
    <g
       id="g134">
      <polygon
         class="cls-47"
         points="140.52,221.12 134.64,217.38 134.63,217.37 127.07,216.19 115.62,245.55 147.12,245.17 148.67,237.66 148.68,237.67 147.27,230.87 "
         id="polygon122"
         style="fill:url(#linearGradient196)" />
      <g
         id="g132">
        <polygon
           class="cls-14"
           points="134.47,217.14 135.89,223.97 142.64,233.72 148.51,237.43 147.11,230.63 140.36,220.88 "
           id="polygon124" />
        <polyline
           class="cls-14"
           points="126.9 215.96 128.21 225.32 138.66 240.41 146.96 244.93"
           id="polyline126" />
        <polyline
           class="cls-14"
           points="135.88 223.96 128.21 225.32 115.46 245.31 138.66 240.41 142.63 233.71"
           id="polyline128" />
        <polyline
           class="cls-14"
           points="134.46 217.13 126.9 215.96 115.46 245.31 146.96 244.93 148.5 237.42"
           id="polyline130" />
      </g>
    </g>
    <polygon
       class="cls-20"
       points="143.38,218.38 142.48,218.56 142.3,219.46 142.12,218.56 141.23,218.38 142.12,218.2 142.3,217.31 142.48,218.2 "
       id="polygon136" />
    <polygon
       class="cls-20"
       points="126.95,212.86 125.41,213.17 125.1,214.71 124.79,213.17 123.25,212.86 124.79,212.55 125.1,211.01 125.41,212.55 "
       id="polygon138" />
    <polygon
       class="cls-51"
       points="147.37,256.54 147.25,244.93 115.1,245.31 133.48,256.43 "
       id="polygon140"
       style="fill:url(#linearGradient198)" />
  </g>
  <g
     id="g164"
     transform="translate(-59.465,-211.01)">
    <polygon
       class="cls-20"
       points="103.37,215.07 102.48,215.24 102.31,216.13 102.13,215.24 101.25,215.07 102.13,214.89 102.31,214.01 102.48,214.89 "
       id="polygon144" />
    <polygon
       class="cls-20"
       points="88.15,224.81 87.51,224.94 87.38,225.58 87.26,224.94 86.62,224.81 87.26,224.68 87.38,224.04 87.51,224.68 "
       id="polygon146" />
    <g
       id="g160">
      <polygon
         class="cls-49"
         points="93.38,220.24 96.78,218.09 96.78,218.08 101.14,217.4 107.74,234.32 89.58,234.1 88.69,229.78 88.68,229.78 89.49,225.86 "
         id="polygon148"
         style="fill:url(#linear-gradient-6)" />
      <g
         id="g158">
        <polygon
           class="cls-14"
           points="96.87,217.95 96.05,221.88 92.16,227.5 88.78,229.64 89.59,225.72 93.48,220.1 "
           id="polygon150" />
        <polyline
           class="cls-14"
           points="101.23 217.26 100.48 222.66 94.46 231.36 89.67 233.97"
           id="polyline152" />
        <polyline
           class="cls-14"
           points="96.06 221.88 100.48 222.66 107.83 234.18 94.46 231.36 92.17 227.5"
           id="polyline154" />
        <polyline
           class="cls-14"
           points="96.87 217.94 101.23 217.26 107.83 234.18 89.67 233.97 88.78 229.64"
           id="polyline156" />
      </g>
    </g>
    <polygon
       class="cls-50"
       points="97.65,240.66 89.67,233.97 108.03,234.18 108.1,240.6 "
       id="polygon162"
       style="fill:url(#linear-gradient-7)" />
  </g>
  <g
     id="g190"
     transform="translate(-59.465,-211.01)">
    <polygon
       class="cls-20"
       points="63.3,229.15 62.22,229.37 62.01,230.44 61.79,229.37 60.72,229.15 61.79,228.94 62.01,227.86 62.22,228.94 "
       id="polygon166" />
    <polygon
       class="cls-20"
       points="66.67,228.29 66,228.43 65.86,229.1 65.73,228.43 65.05,228.29 65.73,228.16 65.86,227.48 66,228.16 "
       id="polygon168" />
    <ellipse
       class="cls-45"
       cx="77.190002"
       cy="236.08"
       rx="17.6"
       ry="6.1500001"
       id="ellipse170"
       style="fill:url(#linear-gradient-8)" />
    <ellipse
       class="cls-14"
       cx="77.190002"
       cy="236.08"
       rx="17.6"
       ry="6.1500001"
       id="ellipse172" />
    <path
       class="cls-14"
       d="m 59.59,236.08 c 0,3.4 7.88,6.15 17.6,6.15 9.72,0 17.6,-2.76 17.6,-6.15 v 2.38 c 0,3.4 -7.88,6.15 -17.6,6.15 -9.72,0 -17.6,-2.76 -17.6,-6.15 z"
       id="path174" />
    <ellipse
       class="cls-13"
       cx="77.190002"
       cy="236.08"
       rx="17.6"
       ry="6.1500001"
       id="ellipse176"
       style="fill:url(#linearGradient200)" />
    <path
       class="cls-58"
       d="m 59.59,236.08 c 0,3.4 7.88,6.15 17.6,6.15 9.72,0 17.6,-2.76 17.6,-6.15 v 2.38 c 0,3.4 -7.88,6.15 -17.6,6.15 -9.72,0 -17.6,-2.76 -17.6,-6.15 z"
       id="path178"
       style="fill:url(#linear-gradient-10)" />
    <path
       class="cls-22"
       d="m 59.54,238.47 c 0,3.41 7.9,6.17 17.65,6.17 9.75,0 17.65,-2.76 17.65,-6.17 v 2.38 c 0,3.41 -7.9,6.17 -17.65,6.17 -9.75,0 -17.65,-2.76 -17.65,-6.17 z"
       id="path180" />
    <g
       id="g188">
      <path
         class="cls-20"
         d="m 77.24,231.74 c 0,0 0.05,0 0.06,0.01 l 1.57,0.96 -1.57,0.96 c 0,0 -0.03,0.01 -0.06,0.01 -0.03,0 -0.05,0 -0.06,-0.01 l -1.57,-0.96 1.57,-0.96 c 0,0 0.03,-0.01 0.06,-0.01 m 0,-0.25 c -0.07,0 -0.14,0.02 -0.19,0.05 l -1.74,1.06 c -0.1,0.06 -0.1,0.16 0,0.23 l 1.74,1.06 c 0.05,0.03 0.12,0.05 0.19,0.05 0.07,0 0.14,-0.02 0.19,-0.05 l 1.74,-1.06 c 0.1,-0.06 0.1,-0.16 0,-0.23 l -1.74,-1.06 c -0.05,-0.03 -0.12,-0.05 -0.19,-0.05 z"
         id="path182" />
      <path
         class="cls-20"
         d="m 77.24,238.15 c 0,0 0.05,0 0.06,0.01 l 1.57,0.96 -1.57,0.96 c 0,0 -0.02,0.01 -0.06,0.01 -0.04,0 -0.05,0 -0.06,-0.01 l -1.57,-0.96 1.57,-0.96 c 0,0 0.02,-0.01 0.06,-0.01 m 0,-0.25 c -0.07,0 -0.14,0.02 -0.19,0.05 l -1.74,1.06 c -0.1,0.06 -0.1,0.16 0,0.23 l 1.74,1.06 c 0,0 0.12,0.05 0.19,0.05 0.07,0 0.14,-0.02 0.19,-0.05 l 1.74,-1.06 c 0.1,-0.06 0.1,-0.16 0,-0.23 l -1.74,-1.06 c 0,0 -0.12,-0.05 -0.19,-0.05 z"
         id="path184" />
      <path
         class="cls-20"
         d="m 74.59,233.68 c 0.35,0 0.68,0.08 0.92,0.23 0.2,0.12 0.32,0.28 0.32,0.43 0,0.15 -0.11,0.3 -0.32,0.43 l -1.28,0.78 c -0.14,0.09 -0.23,0.22 -0.23,0.37 0,0.15 0.08,0.28 0.23,0.37 0.14,0.08 0.28,0.1 0.39,0.1 0.11,0 0.25,-0.02 0.39,-0.1 l 2.62,-1.6 c 0.59,-0.36 1.39,-0.56 2.24,-0.56 0.85,0 1.64,0.2 2.24,0.56 0.55,0.34 0.86,0.77 0.86,1.23 0,0.46 -0.3,0.89 -0.86,1.23 l -1.33,0.81 c -0.24,0.15 -0.57,0.23 -0.92,0.23 -0.35,0 -0.68,-0.08 -0.92,-0.23 -0.12,-0.07 -0.32,-0.22 -0.32,-0.43 0,-0.15 0.11,-0.3 0.32,-0.43 l 1.33,-0.81 c 0.14,-0.09 0.23,-0.22 0.23,-0.37 0,-0.15 -0.08,-0.28 -0.23,-0.37 -0.14,-0.08 -0.29,-0.1 -0.39,-0.1 -0.1,0 -0.25,0.02 -0.38,0.1 l -2.62,1.6 c -0.59,0.36 -1.39,0.56 -2.24,0.56 -0.85,0 -1.64,-0.2 -2.23,-0.56 -0.55,-0.34 -0.86,-0.77 -0.86,-1.23 0,-0.46 0.31,-0.89 0.86,-1.23 l 1.28,-0.78 c 0.24,-0.15 0.57,-0.23 0.93,-0.23 m 0,-0.25 c -0.4,0 -0.77,0.09 -1.06,0.27 l -1.28,0.78 c -0.63,0.38 -0.98,0.9 -0.98,1.44 0,0.54 0.35,1.06 0.98,1.44 0.63,0.38 1.47,0.6 2.36,0.6 0.89,0 1.73,-0.21 2.37,-0.6 l 2.62,-1.6 c 0.09,-0.06 0.2,-0.06 0.25,-0.06 0.05,0 0.16,0 0.26,0.06 0.07,0.04 0.11,0.1 0.11,0.16 0,0.06 -0.04,0.11 -0.11,0.16 l -1.33,0.81 c -0.28,0.17 -0.44,0.4 -0.44,0.64 0,0.24 0.16,0.47 0.44,0.64 0.28,0.17 0.66,0.27 1.05,0.27 0.39,0 0.77,-0.09 1.05,-0.27 l 1.33,-0.81 c 0.63,-0.38 0.98,-0.9 0.98,-1.44 0,-0.54 -0.35,-1.06 -0.98,-1.44 -0.63,-0.38 -1.47,-0.6 -2.36,-0.6 -0.89,0 -1.73,0.21 -2.36,0.6 l -2.62,1.6 c -0.09,0.06 -0.2,0.06 -0.26,0.06 -0.06,0 -0.16,0 -0.26,-0.06 -0.09,-0.06 -0.11,-0.12 -0.11,-0.16 0,-0.04 0.01,-0.1 0.11,-0.16 l 1.28,-0.78 c 0.58,-0.35 0.58,-0.93 0,-1.28 -0.28,-0.17 -0.66,-0.27 -1.05,-0.27 v 0 z"
         id="path186" />
    </g>
  </g>
</svg>
