<?xml version="1.0" encoding="UTF-8" standalone="no"?>
<svg
   viewBox="0 0 9.050004 8.8600082"
   version="1.1"
   id="svg26"
   sodipodi:docname="ninegrid.svg"
   width="9.050004"
   height="8.8600082"
   inkscape:version="1.2.2 (732a01da63, 2022-12-09)"
   xmlns:inkscape="http://www.inkscape.org/namespaces/inkscape"
   xmlns:sodipodi="http://sodipodi.sourceforge.net/DTD/sodipodi-0.dtd"
   xmlns="http://www.w3.org/2000/svg"
   xmlns:svg="http://www.w3.org/2000/svg">
  <sodipodi:namedview
     id="namedview28"
     pagecolor="#ffffff"
     bordercolor="#000000"
     borderopacity="0.25"
     inkscape:showpageshadow="2"
     inkscape:pageopacity="0.0"
     inkscape:pagecheckerboard="0"
     inkscape:deskcolor="#d1d1d1"
     showgrid="false"
     inkscape:zoom="1.05375"
     inkscape:cx="171.7675"
     inkscape:cy="332.62159"
     inkscape:window-width="2400"
     inkscape:window-height="1271"
     inkscape:window-x="-9"
     inkscape:window-y="-9"
     inkscape:window-maximized="1"
     inkscape:current-layer="svg26" />
  <defs
     id="defs4">
    <style
       id="style2">
	.cls-16{
		fill: #ffffff;
	}
	</style>
  </defs>
  <g
     id="g24"
     transform="translate(-179.5,-69.079999)">
    <rect
       class="cls-16"
       x="179.5"
       y="69.080002"
       width="1.6900001"
       height="1.6799999"
       rx="0.83999997"
       ry="0.83999997"
       transform="rotate(-90,180.345,69.925)"
       id="rect6" />
    <rect
       class="cls-16"
       x="179.5"
       y="72.669998"
       width="1.6900001"
       height="1.6799999"
       rx="0.83999997"
       ry="0.83999997"
       transform="rotate(-90,180.34,73.51)"
       id="rect8" />
    <rect
       class="cls-16"
       x="179.5"
       y="76.25"
       width="1.6900001"
       height="1.6799999"
       rx="0.83999997"
       ry="0.83999997"
       transform="rotate(-90,180.34,77.09)"
       id="rect10" />
    <rect
       class="cls-16"
       x="183.17999"
       y="69.080002"
       width="1.6900001"
       height="1.6799999"
       rx="0.83999997"
       ry="0.83999997"
       transform="rotate(-90,184.025,69.925)"
       id="rect12" />
    <rect
       class="cls-16"
       x="183.17999"
       y="72.669998"
       width="1.6900001"
       height="1.6799999"
       rx="0.83999997"
       ry="0.83999997"
       transform="rotate(-90,184.025,73.505)"
       id="rect14" />
    <rect
       class="cls-16"
       x="183.17999"
       y="76.25"
       width="1.6900001"
       height="1.6799999"
       rx="0.83999997"
       ry="0.83999997"
       transform="rotate(-90,184.025,77.095)"
       id="rect16" />
    <rect
       class="cls-16"
       x="186.86"
       y="69.080002"
       width="1.6900001"
       height="1.6799999"
       rx="0.83999997"
       ry="0.83999997"
       transform="rotate(-90,187.71,69.92)"
       id="rect18" />
    <rect
       class="cls-16"
       x="186.86"
       y="72.669998"
       width="1.6900001"
       height="1.6799999"
       rx="0.83999997"
       ry="0.83999997"
       transform="rotate(-90,187.71,73.51)"
       id="rect20" />
    <rect
       class="cls-16"
       x="186.86"
       y="76.25"
       width="1.6900001"
       height="1.6799999"
       rx="0.83999997"
       ry="0.83999997"
       transform="rotate(-90,187.71,77.09)"
       id="rect22" />
  </g>
</svg>
