<?xml version="1.0" encoding="UTF-8" standalone="no"?>
<svg
   viewBox="0 0 17.809999 18.200001"
   version="1.1"
   id="svg20"
   sodipodi:docname="swopblockreward.svg"
   width="17.809999"
   height="18.200001"
   inkscape:version="1.2.2 (732a01da63, 2022-12-09)"
   xmlns:inkscape="http://www.inkscape.org/namespaces/inkscape"
   xmlns:sodipodi="http://sodipodi.sourceforge.net/DTD/sodipodi-0.dtd"
   xmlns="http://www.w3.org/2000/svg"
   xmlns:svg="http://www.w3.org/2000/svg">
  <sodipodi:namedview
     id="namedview22"
     pagecolor="#ffffff"
     bordercolor="#000000"
     borderopacity="0.25"
     inkscape:showpageshadow="2"
     inkscape:pageopacity="0.0"
     inkscape:pagecheckerboard="0"
     inkscape:deskcolor="#d1d1d1"
     showgrid="false"
     inkscape:zoom="4.215"
     inkscape:cx="106.40569"
     inkscape:cy="64.412811"
     inkscape:window-width="1920"
     inkscape:window-height="1001"
     inkscape:window-x="2391"
     inkscape:window-y="-9"
     inkscape:window-maximized="1"
     inkscape:current-layer="svg20" />
  <defs
     id="defs4">
    <style
       id="style2">
	.cls-1{
		fill: #ff00bc;
	}
	</style>
  </defs>
  <g
     id="g18"
     transform="translate(-21.84,-70.03)">
    <polygon
       class="cls-1"
       points="27.43,72.83 25.1,73.3 24.63,75.63 24.17,73.3 21.84,72.83 24.17,72.37 24.63,70.03 25.1,72.37 "
       id="polygon6" />
    <polygon
       class="cls-1"
       points="39.65,86.57 38.26,86.84 37.98,88.23 37.71,86.84 36.32,86.57 37.71,86.29 37.98,84.9 38.26,86.29 "
       id="polygon8" />
    <g
       id="g16">
      <path
         class="cls-1"
         d="m 31.36,76.4 c -0.07,0 -0.14,-0.03 -0.19,-0.08 L 29.4,74.55 c -0.1,-0.1 -0.1,-0.27 0,-0.38 l 1.77,-1.77 c 0.05,-0.05 0.12,-0.08 0.19,-0.08 0.07,0 0.14,0.03 0.19,0.08 l 1.77,1.77 c 0.1,0.1 0.1,0.27 0,0.38 l -1.77,1.77 c -0.05,0.05 -0.12,0.08 -0.19,0.08 z"
         id="path10" />
      <path
         class="cls-1"
         d="m 31.36,87.11 c -0.07,0 -0.14,-0.03 -0.19,-0.08 L 29.4,85.26 c -0.1,-0.1 -0.1,-0.27 0,-0.38 l 1.77,-1.77 c 0.05,-0.05 0.12,-0.08 0.19,-0.08 0.07,0 0.14,0.03 0.19,0.08 l 1.77,1.77 c 0.1,0.1 0.1,0.27 0,0.38 l -1.77,1.77 c -0.05,0.05 -0.12,0.08 -0.19,0.08 z"
         id="path12" />
      <path
         class="cls-1"
         d="m 34,83.93 c -0.41,0 -0.79,-0.16 -1.07,-0.44 -0.29,-0.29 -0.45,-0.67 -0.45,-1.07 0,-0.4 0.16,-0.79 0.45,-1.07 l 1.36,-1.36 c 0.07,-0.07 0.11,-0.16 0.11,-0.26 0,-0.1 -0.04,-0.19 -0.11,-0.26 -0.09,-0.09 -0.2,-0.11 -0.26,-0.11 -0.06,0 -0.17,0.01 -0.26,0.11 l -2.67,2.67 c -0.64,0.64 -1.5,1 -2.41,1 -0.91,0 -1.76,-0.35 -2.41,-1 -0.64,-0.64 -1,-1.5 -1,-2.41 0,-0.91 0.35,-1.76 1,-2.41 l 1.3,-1.3 c 0.29,-0.29 0.67,-0.44 1.07,-0.44 0.4,0 0.79,0.16 1.07,0.44 0.59,0.59 0.59,1.55 0,2.15 l -1.3,1.3 c -0.09,0.09 -0.11,0.2 -0.11,0.26 0,0.06 0.01,0.17 0.11,0.26 0.09,0.09 0.2,0.11 0.26,0.11 0.06,0 0.17,-0.01 0.26,-0.11 l 2.67,-2.67 c 0.64,-0.64 1.5,-1 2.41,-1 0.91,0 1.76,0.35 2.41,1 0.64,0.64 0.99,1.5 0.99,2.41 0,0.91 -0.35,1.76 -0.99,2.41 L 35.07,83.5 C 34.78,83.79 34.4,83.94 34,83.94 Z"
         id="path14" />
    </g>
  </g>
</svg>
