<?xml version="1.0" encoding="UTF-8" standalone="no"?>
<svg
   viewBox="0 0 2400.7261 11782.968"
   version="1.1"
   id="svg5644"
   width="2400.7261"
   height="11782.969"
   xmlns="http://www.w3.org/2000/svg"
   xmlns:svg="http://www.w3.org/2000/svg">
  <defs
     id="defs5062">
    <style
       id="style4500">.cls-1,.cls-2,.cls-3,.cls-4,.cls-5,.cls-6,.cls-7,.cls-8,.cls-9{fill:none;}.cls-2{stroke:url(#linear-gradient-23);stroke-width:.25px;}.cls-2,.cls-10,.cls-3,.cls-4,.cls-5,.cls-6,.cls-7,.cls-8,.cls-9,.cls-11{stroke-miterlimit:10;}.cls-12,.cls-13,.cls-14,.cls-15,.cls-16,.cls-17,.cls-18,.cls-19,.cls-20{font-family:GuidaPro-Regular, 'Guida Pro';}.cls-12,.cls-21,.cls-22,.cls-23{font-size:8px;}.cls-10,.cls-3,.cls-4,.cls-5,.cls-6,.cls-7,.cls-11{stroke-width:.75px;}.cls-10,.cls-11{stroke:#fff;}.cls-24,.cls-25,.cls-22{letter-spacing:.03em;}.cls-13,.cls-26,.cls-27,.cls-14,.cls-22,.cls-23,.cls-19,.cls-28,.cls-29,.cls-30,.cls-31,.cls-32{fill:#fff;}.cls-13,.cls-33{letter-spacing:.05em;}.cls-13,.cls-16,.cls-17,.cls-18,.cls-19,.cls-20{font-size:6px;}.cls-26{letter-spacing:0em;}.cls-34{letter-spacing:-.01em;}.cls-35{letter-spacing:.05em;}.cls-36{letter-spacing:.05em;}.cls-37,.cls-29{letter-spacing:.05em;}.cls-38{fill:url(#linear-gradient);}.cls-39{letter-spacing:-.04em;}.cls-40{letter-spacing:-.04em;}.cls-41,.cls-27{letter-spacing:.02em;}.cls-41,.cls-15,.cls-25,.cls-42,.cls-43,.cls-44,.cls-45{fill:#71868f;}.cls-46,.cls-43{letter-spacing:.03em;}.cls-47{letter-spacing:.02em;}.cls-48{letter-spacing:.05em;}.cls-49{letter-spacing:.05em;}.cls-50{letter-spacing:.05em;}.cls-21,.cls-51{fill:#a1b4b6;}.cls-21,.cls-52,.cls-29,.cls-30,.cls-31,.cls-32{font-family:GuidaPro-Light, 'Guida Pro';font-weight:300;}.cls-53{letter-spacing:.03em;}.cls-54{clip-path:url(#clippath);}.cls-14,.cls-15,.cls-32{font-size:7px;}.cls-55{letter-spacing:.01em;}.cls-56{letter-spacing:.01em;}.cls-57,.cls-16{fill:#0d0;}.cls-58,.cls-18{fill:#f2a900;}.cls-59,.cls-17{fill:#ff00bc;}.cls-60{fill:#969696;}.cls-61,.cls-20{fill:#6f89ff;}.cls-62,.cls-63{fill:#272932;}.cls-64,.cls-52{fill:#545e68;}.cls-65{fill:rgba(111,137,255,.6);}.cls-66{fill:rgba(111,137,255,.2);}.cls-67{letter-spacing:.04em;}.cls-68{letter-spacing:.01em;}.cls-69{letter-spacing:.04em;}.cls-70{letter-spacing:.02em;}.cls-71{letter-spacing:0em;}.cls-52{font-size:7.47px;}.cls-72{letter-spacing:.02em;}.cls-22,.cls-23{font-family:GuidaPro-Bold, 'Guida Pro';}.cls-22,.cls-23,.cls-45{font-weight:700;}.cls-73{fill:url(#radial-gradient-2);mix-blend-mode:screen;}.cls-74{letter-spacing:.04em;}.cls-43{font-family:Galvji, Galvji;font-size:7.5px;}.cls-75{clip-path:url(#clippath-2);}.cls-28{letter-spacing:-.05em;}.cls-76{letter-spacing:.04em;}.cls-29,.cls-30{font-size:10px;}.cls-77{fill:url(#radial-gradient-4);}.cls-77,.cls-78,.cls-79,.cls-80{opacity:.6;}.cls-78{fill:url(#radial-gradient-5);}.cls-79{fill:url(#radial-gradient-3);}.cls-3{stroke:#0d0;}.cls-4{stroke:#ff00bc;}.cls-5{stroke:#f2a900;}.cls-6,.cls-8{stroke:#272932;}.cls-7{stroke:#6f89ff;}.cls-81{fill:url(#radial-gradient-6);}.cls-82{fill:url(#radial-gradient-7);}.cls-83{letter-spacing:.03em;}.cls-84{letter-spacing:0em;}.cls-44{letter-spacing:0em;}.cls-85{letter-spacing:-.01em;}.cls-86{letter-spacing:-.01em;}.cls-87{letter-spacing:.02em;}.cls-88{letter-spacing:.03em;}.cls-89{fill:url(#linear-gradient-8);}.cls-90{fill:url(#linear-gradient-9);}.cls-91{fill:url(#linear-gradient-3);}.cls-92{fill:url(#linear-gradient-4);}.cls-93{fill:url(#linear-gradient-2);}.cls-94{fill:url(#linear-gradient-6);}.cls-95{fill:url(#linear-gradient-7);}.cls-96{fill:url(#linear-gradient-5);}.cls-97{letter-spacing:.03em;}.cls-98{letter-spacing:.03em;}.cls-99{letter-spacing:.03em;}.cls-100{letter-spacing:.03em;}.cls-101{fill:url(#radial-gradient);mix-blend-mode:multiply;}.cls-102{letter-spacing:.02em;}.cls-103{opacity:.4;}.cls-104{letter-spacing:-.04em;}.cls-45{font-family:Galvji-Bold, Galvji;font-size:9px;}.cls-31{font-size:18px;}.cls-105{letter-spacing:-.02em;}.cls-106{fill:url(#linear-gradient-14);}.cls-107{fill:url(#linear-gradient-18);}.cls-108{fill:url(#linear-gradient-22);}.cls-109{fill:url(#linear-gradient-20);}.cls-110{fill:url(#linear-gradient-15);}.cls-111{fill:url(#linear-gradient-19);}.cls-112{fill:url(#linear-gradient-16);}.cls-113{fill:url(#linear-gradient-17);}.cls-114{fill:url(#linear-gradient-13);}.cls-115{fill:url(#linear-gradient-12);}.cls-116{fill:url(#linear-gradient-10);}.cls-117{fill:url(#linear-gradient-11);}.cls-32{letter-spacing:.02em;}.cls-118{isolation:isolate;}.cls-119{letter-spacing:0em;}.cls-120{letter-spacing:0em;}.cls-63{opacity:.59;}.cls-121{fill:#221f20;opacity:.54;}.cls-122{letter-spacing:0em;}.cls-123{letter-spacing:.04em;}.cls-124{letter-spacing:.04em;}.cls-125{letter-spacing:.04em;}.cls-126{letter-spacing:.04em;}.cls-127{letter-spacing:.04em;}.cls-8,.cls-9{stroke-width:.5px;}.cls-9{stroke:#2f323a;}.cls-11{fill:url(#linear-gradient-21);}</style>
  </defs>
  <g
     class="cls-118"
     id="g5642"
     transform="translate(-4133.8813,-444494.86)">
    <g
       id="Layer_1">
      <g
         id="g5639">
        <path
           class="cls-57"
           d="m 25.33,528.28 c -0.07,0 -0.13,-0.03 -0.18,-0.07 l -1.66,-1.66 c -0.1,-0.1 -0.1,-0.26 0,-0.35 l 1.66,-1.66 c 0,0 0.11,-0.07 0.18,-0.07 0.07,0 0.13,0.03 0.18,0.07 l 1.66,1.66 c 0.1,0.1 0.1,0.26 0,0.35 l -1.66,1.66 c 0,0 -0.11,0.07 -0.18,0.07 z"
           id="path5295" />
        <path
           class="cls-57"
           d="m 25.33,538.34 c -0.07,0 -0.13,-0.03 -0.18,-0.07 l -1.66,-1.66 c -0.1,-0.1 -0.1,-0.26 0,-0.35 l 1.66,-1.66 c 0,0 0.11,-0.07 0.18,-0.07 0.07,0 0.13,0.03 0.18,0.07 l 1.66,1.66 c 0.1,0.1 0.1,0.26 0,0.35 l -1.66,1.66 c 0,0 -0.11,0.07 -0.18,0.07 z"
           id="path5297" />
        <path
           class="cls-57"
           d="m 27.81,535.36 c -0.38,0 -0.74,-0.15 -1.01,-0.42 -0.27,-0.27 -0.42,-0.63 -0.42,-1.01 0,-0.38 0.15,-0.74 0.42,-1.01 l 1.28,-1.28 c 0.06,-0.06 0.1,-0.15 0.1,-0.24 0,-0.09 -0.04,-0.18 -0.1,-0.24 -0.09,-0.09 -0.19,-0.1 -0.24,-0.1 -0.05,0 -0.16,0.01 -0.24,0.1 l -2.51,2.51 c -0.6,0.6 -1.41,0.94 -2.26,0.94 -0.85,0 -1.66,-0.33 -2.26,-0.94 -0.6,-0.6 -0.94,-1.41 -0.94,-2.26 0,-0.85 0.33,-1.66 0.94,-2.26 l 1.22,-1.22 c 0.27,-0.27 0.63,-0.42 1.01,-0.42 0.38,0 0.74,0.15 1.01,0.42 0.56,0.56 0.56,1.46 0,2.02 l -1.22,1.22 c -0.09,0.09 -0.1,0.19 -0.1,0.24 0,0.05 0.01,0.16 0.1,0.24 0.09,0.09 0.19,0.1 0.24,0.1 0.05,0 0.16,-0.01 0.24,-0.1 l 2.51,-2.51 c 0.6,-0.6 1.41,-0.94 2.26,-0.94 0.85,0 1.66,0.33 2.26,0.94 0.6,0.6 0.93,1.41 0.93,2.26 0,0.85 -0.33,1.66 -0.93,2.26 l -1.28,1.28 c -0.27,0.27 -0.63,0.42 -1.01,0.42 z"
           id="path5299" />
      </g>
    </g>
  </g>
</svg>
